<svg version="1.1" id="Layer_1" xmlns="http://www.w3.org/2000/svg" xmlns:xlink="http://www.w3.org/1999/xlink" x="0px" y="0px"
	 width="100%" viewBox="0 0 2880 1626" enable-background="new 0 0 2880 1626" xml:space="preserve">
<path fill="#FFFFFF" opacity="1.000000" stroke="none" 
	d="
M2138.000000,1628.000000 
	C1425.412109,1628.000000 713.824280,1628.000000 2.118221,1628.000000 
	C2.118221,1086.138916 2.118221,544.277710 2.118221,2.208257 
	C961.754822,2.208257 1921.509766,2.208257 2881.632324,2.208257 
	C2881.632324,543.999817 2881.632324,1085.999878 2881.632324,1628.000000 
	C2634.277100,1628.000000 2386.638428,1628.000000 2138.000000,1628.000000 
M1337.620728,1562.309448 
	C1342.975586,1562.165161 1348.330322,1562.020874 1355.585693,1562.157837 
	C1485.978271,1562.188843 1616.370850,1562.220703 1746.763428,1562.238281 
	C1747.752563,1562.238403 1748.741821,1562.043213 1751.535522,1562.298218 
	C1757.013794,1562.152710 1762.492065,1562.007202 1769.808105,1562.279785 
	C1869.229370,1562.298950 1968.650513,1562.320557 2068.071777,1562.320068 
	C2070.053467,1562.320068 2072.034912,1562.061279 2075.759033,1562.296509 
	C2081.066406,1562.153198 2086.374023,1562.009888 2093.594727,1561.950684 
	C2109.925049,1561.968750 2126.255127,1562.032471 2142.585449,1561.991821 
	C2158.765381,1561.951660 2174.959961,1562.223145 2191.999756,1561.786743 
	C2191.999756,1556.382324 2191.999756,1552.441650 2191.999756,1548.500977 
	C2191.999268,1445.852783 2192.006592,1343.204712 2191.990234,1240.556519 
	C2191.987793,1224.894653 2191.877686,1209.232666 2191.678467,1191.756470 
	C2191.525635,1179.939575 2191.372803,1168.122559 2191.602783,1154.425415 
	C2191.625732,1076.272095 2191.650879,998.118774 2191.656250,919.965454 
	C2191.656250,918.648071 2191.418701,917.330750 2191.630127,914.308533 
	C2191.673340,909.699951 2191.716553,905.091309 2191.901123,898.552368 
	C2191.933838,819.901611 2191.989258,741.250854 2191.994629,662.600098 
	C2192.007812,469.637848 2191.998047,276.675598 2191.997803,83.713364 
	C2191.997803,79.501755 2191.998047,75.290146 2191.998047,70.003052 
	C2186.614258,70.003052 2182.700439,70.003052 2178.786621,70.003052 
	C1907.839722,70.003258 1636.892700,70.003387 1365.945801,70.004929 
	C1363.613037,70.004936 1361.224121,69.717827 1358.965210,70.131470 
	C1357.168579,70.460449 1355.530884,71.656647 1352.342773,71.770409 
	C1346.836548,71.419472 1341.330444,71.068542 1334.008301,70.343918 
	C1121.488403,70.343918 908.968445,70.343918 695.680664,70.343918 
	C695.680664,75.530426 695.680664,79.479111 695.680664,83.427803 
	C695.680298,351.395691 695.678223,619.363586 695.697937,887.331482 
	C695.698242,890.985535 695.974243,894.639587 695.767334,900.028076 
	C695.825928,905.407837 695.884521,910.787537 695.931030,918.017334 
	C695.952515,1108.790039 695.973022,1299.562744 696.001343,1490.335449 
	C696.002014,1494.995728 696.089844,1499.656006 695.844849,1506.068848 
	C695.876892,1511.434082 695.908997,1516.799316 695.926208,1524.017944 
	C695.926208,1536.249146 695.926208,1548.480225 695.926208,1562.004883 
	C701.459167,1562.004883 705.691284,1562.004639 709.923462,1562.005005 
	C918.560913,1562.023071 1127.198364,1562.041382 1337.620728,1562.309448 
z"/>
<path fill="#F0F1EC" opacity="1.000000" stroke="none" 
	d="
M1353.822510,72.467819 
	C1355.530884,71.656647 1357.168579,70.460449 1358.965210,70.131470 
	C1361.224121,69.717827 1363.613037,70.004936 1365.945801,70.004929 
	C1636.892700,70.003387 1907.839722,70.003258 2178.786621,70.003052 
	C2182.700439,70.003052 2186.614258,70.003052 2191.998047,70.003052 
	C2191.998047,75.290146 2191.997803,79.501755 2191.997803,83.713364 
	C2191.998047,276.675598 2192.007812,469.637848 2191.994629,662.600098 
	C2191.989258,741.250854 2191.933838,819.901611 2191.076172,899.135742 
	C2186.418457,899.256836 2182.585449,898.390686 2178.752686,898.389832 
	C1907.784790,898.326599 1636.816895,898.332397 1365.848999,898.332397 
	C1361.966797,898.332397 1358.084595,898.332397 1353.667603,898.332397 
	C1353.667603,893.585571 1353.667603,889.975647 1353.667603,886.365662 
	C1353.667603,618.397400 1353.667236,350.429138 1353.674072,82.460861 
	C1353.674072,79.129837 1353.770874,75.798813 1353.822510,72.467819 
z"/>
<path fill="#D54232" opacity="1.000000" stroke="none" 
	d="
M696.121582,898.293640 
	C695.974243,894.639587 695.698242,890.985535 695.697937,887.331482 
	C695.678223,619.363586 695.680298,351.395691 695.680664,83.427803 
	C695.680664,79.479111 695.680664,75.530426 695.680664,70.343918 
	C908.968445,70.343918 1121.488403,70.343918 1334.938477,71.416626 
	C1335.814819,76.487015 1335.714111,80.484680 1335.713989,84.482353 
	C1335.706543,351.440063 1335.707275,618.397766 1335.707275,885.355469 
	C1335.707275,889.279236 1335.707153,893.203003 1335.707153,898.293640 
	C1121.824341,898.293640 908.972961,898.293640 696.121582,898.293640 
z"/>
<path fill="#F0F1EC" opacity="1.000000" stroke="none" 
	d="
M696.136963,1504.316284 
	C696.089844,1499.656006 696.002014,1494.995728 696.001343,1490.335449 
	C695.973022,1299.562744 695.952515,1108.790039 696.875488,917.167480 
	C905.713440,916.323120 1113.606934,916.328613 1321.500488,916.334290 
	C1324.165771,916.334351 1326.833374,916.408813 1329.495850,916.322571 
	C1333.571411,916.190552 1335.814941,917.863403 1335.670166,922.163696 
	C1335.614136,923.827576 1335.667114,925.494995 1335.667114,927.160828 
	C1335.666992,1116.730591 1335.668823,1306.300293 1335.646118,1495.869995 
	C1335.645874,1498.441895 1335.341797,1501.013916 1335.133423,1504.316284 
	C1121.785522,1504.316284 908.961243,1504.316284 696.136963,1504.316284 
z"/>
<path fill="#000000" opacity="1.000000" stroke="none" 
	d="
M695.990906,1505.192627 
	C908.961243,1504.316284 1121.785522,1504.316284 1335.133423,1504.316284 
	C1335.341797,1501.013916 1335.645874,1498.441895 1335.646118,1495.869995 
	C1335.668823,1306.300293 1335.666992,1116.730591 1335.667114,927.160828 
	C1335.667114,925.494995 1335.614136,923.827576 1335.670166,922.163696 
	C1335.814941,917.863403 1333.571411,916.190552 1329.495850,916.322571 
	C1326.833374,916.408813 1324.165771,916.334351 1321.500488,916.334290 
	C1113.606934,916.328613 905.713440,916.323120 696.881531,916.242432 
	C695.884521,910.787537 695.825928,905.407837 695.944458,899.160889 
	C908.972961,898.293640 1121.824341,898.293640 1335.707153,898.293640 
	C1335.707153,893.203003 1335.707275,889.279236 1335.707275,885.355469 
	C1335.707275,618.397766 1335.706543,351.440063 1335.713989,84.482353 
	C1335.714111,80.484680 1335.814819,76.487015 1335.846436,71.603470 
	C1341.330444,71.068542 1346.836548,71.419472 1353.082642,72.119102 
	C1353.770874,75.798813 1353.674072,79.129837 1353.674072,82.460861 
	C1353.667236,350.429138 1353.667603,618.397400 1353.667603,886.365662 
	C1353.667603,889.975647 1353.667603,893.585571 1353.667603,898.332397 
	C1358.084595,898.332397 1361.966797,898.332397 1365.848999,898.332397 
	C1636.816895,898.332397 1907.784790,898.326599 2178.752686,898.389832 
	C2182.585449,898.390686 2186.418457,899.256836 2191.005371,900.100952 
	C2191.716553,905.091309 2191.673340,909.699951 2190.571289,915.157776 
	C2157.314697,916.007019 2125.116943,916.007019 2093.204102,916.007019 
	C2090.915527,928.312866 2091.385986,1148.388428 2093.686768,1156.305664 
	C2126.031006,1156.305664 2158.625488,1156.305664 2191.219971,1156.305664 
	C2191.372803,1168.122559 2191.525635,1179.939575 2190.851074,1192.914551 
	C2157.495117,1194.072632 2124.966064,1194.072632 2091.681396,1194.072632 
	C2091.681396,1317.552246 2091.681396,1439.709473 2091.681396,1561.866577 
	C2086.374023,1562.009888 2081.066406,1562.153198 2074.862793,1561.178101 
	C2073.960693,1553.742554 2074.014648,1547.424683 2073.931152,1541.108643 
	C2073.849854,1534.962891 2073.627930,1528.819092 2073.468262,1522.683228 
	C1971.136475,1522.683228 1870.200195,1522.683228 1767.970337,1522.683228 
	C1767.970337,1536.138550 1767.970337,1549.000122 1767.970337,1561.861816 
	C1762.492065,1562.007202 1757.013794,1562.152710 1750.608521,1561.190186 
	C1749.675903,1549.753418 1749.572876,1539.423218 1749.709473,1529.096436 
	C1749.769287,1524.582397 1748.165894,1522.112427 1743.371094,1522.323608 
	C1741.375977,1522.411499 1739.373657,1522.331543 1737.374512,1522.331543 
	C1613.095703,1522.331543 1488.816895,1522.331909 1364.538086,1522.332275 
	C1361.283691,1522.332275 1358.029297,1522.332397 1353.685181,1522.332397 
	C1353.685181,1536.102905 1353.685181,1548.989746 1353.685181,1561.876587 
	C1348.330322,1562.020874 1342.975586,1562.165161 1336.651855,1561.246704 
	C1335.677734,1551.855835 1335.621460,1543.527344 1335.679077,1535.199707 
	C1335.773804,1521.482178 1336.307007,1522.317993 1322.543945,1522.319214 
	C1117.671753,1522.338501 912.799500,1522.333740 707.927307,1522.325806 
	C703.931885,1522.325684 699.936462,1522.220581 695.941040,1522.164551 
	C695.908997,1516.799316 695.876892,1511.434082 695.990906,1505.192627 
M1381.019409,916.333618 
	C1372.129150,916.333618 1363.238892,916.333618 1354.228027,916.333618 
	C1354.228027,1112.880981 1354.228027,1308.302490 1354.228027,1503.713379 
	C1594.181152,1503.713379 1833.573242,1503.713379 2073.667480,1503.713379 
	C2073.667480,1499.838013 2073.667725,1496.566284 2073.667725,1493.294556 
	C2073.667969,1305.018799 2073.667969,1116.743042 2073.667969,928.467285 
	C2073.667969,927.134338 2073.700195,925.800537 2073.661865,924.468689 
	C2073.443848,916.887817 2073.147217,916.568054 2065.802490,916.345642 
	C2063.471924,916.275085 2061.137451,916.334167 2058.804932,916.334167 
	C1833.540527,916.334045 1608.276123,916.334045 1381.019409,916.333618 
z"/>
<path fill="#F0F1EC" opacity="1.000000" stroke="none" 
	d="
M2092.638184,1561.908691 
	C2091.681396,1439.709473 2091.681396,1317.552246 2091.681396,1194.072632 
	C2124.966064,1194.072632 2157.495117,1194.072632 2190.920654,1193.821777 
	C2191.877686,1209.232666 2191.987793,1224.894653 2191.990234,1240.556519 
	C2192.006592,1343.204712 2191.999268,1445.852783 2191.999756,1548.500977 
	C2191.999756,1552.441650 2191.999756,1556.382324 2191.999756,1561.786743 
	C2174.959961,1562.223145 2158.765381,1561.951660 2142.585449,1561.991821 
	C2126.255127,1562.032471 2109.925049,1561.968750 2092.638184,1561.908691 
z"/>
<path fill="#F0F1EC" opacity="1.000000" stroke="none" 
	d="
M695.933594,1523.091309 
	C699.936462,1522.220581 703.931885,1522.325684 707.927307,1522.325806 
	C912.799500,1522.333740 1117.671753,1522.338501 1322.543945,1522.319214 
	C1336.307007,1522.317993 1335.773804,1521.482178 1335.679077,1535.199707 
	C1335.621460,1543.527344 1335.677734,1551.855835 1335.759277,1561.121826 
	C1127.198364,1562.041382 918.560913,1562.023071 709.923462,1562.005005 
	C705.691284,1562.004639 701.459167,1562.004883 695.926208,1562.004883 
	C695.926208,1548.480225 695.926208,1536.249146 695.933594,1523.091309 
z"/>
<path fill="#1A448D" opacity="1.000000" stroke="none" 
	d="
M2191.411377,1155.365479 
	C2158.625488,1156.305664 2126.031006,1156.305664 2093.686768,1156.305664 
	C2091.385986,1148.388428 2090.915527,928.312866 2093.204102,916.007019 
	C2125.116943,916.007019 2157.314697,916.007019 2190.402344,916.010193 
	C2191.418701,917.330750 2191.656250,918.648071 2191.656250,919.965454 
	C2191.650879,998.118774 2191.625732,1076.272095 2191.411377,1155.365479 
z"/>
<path fill="#F2D24D" opacity="1.000000" stroke="none" 
	d="
M1354.635498,1562.017212 
	C1353.685181,1548.989746 1353.685181,1536.102905 1353.685181,1522.332397 
	C1358.029297,1522.332397 1361.283691,1522.332275 1364.538086,1522.332275 
	C1488.816895,1522.331909 1613.095703,1522.331543 1737.374512,1522.331543 
	C1739.373657,1522.331543 1741.375977,1522.411499 1743.371094,1522.323608 
	C1748.165894,1522.112427 1749.769287,1524.582397 1749.709473,1529.096436 
	C1749.572876,1539.423218 1749.675903,1549.753418 1749.706299,1561.010742 
	C1748.741821,1562.043213 1747.752563,1562.238403 1746.763428,1562.238281 
	C1616.370850,1562.220703 1485.978271,1562.188843 1354.635498,1562.017212 
z"/>
<path fill="#242629" opacity="1.000000" stroke="none" 
	d="
M1768.889160,1562.070801 
	C1767.970337,1549.000122 1767.970337,1536.138550 1767.970337,1522.683228 
	C1870.200195,1522.683228 1971.136475,1522.683228 2073.468262,1522.683228 
	C2073.627930,1528.819092 2073.849854,1534.962891 2073.931152,1541.108643 
	C2074.014648,1547.424683 2073.960693,1553.742554 2073.991699,1560.991455 
	C2072.034912,1562.061279 2070.053467,1562.320068 2068.071777,1562.320068 
	C1968.650513,1562.320557 1869.229370,1562.298950 1768.889160,1562.070801 
z"/>
<path fill="#F0F1EC" opacity="1.000000" stroke="none" 
	d="
M1382.015625,916.333801 
	C1608.276123,916.334045 1833.540527,916.334045 2058.804932,916.334167 
	C2061.137451,916.334167 2063.471924,916.275085 2065.802490,916.345642 
	C2073.147217,916.568054 2073.443848,916.887817 2073.661865,924.468689 
	C2073.700195,925.800537 2073.667969,927.134338 2073.667969,928.467285 
	C2073.667969,1116.743042 2073.667969,1305.018799 2073.667725,1493.294556 
	C2073.667725,1496.566284 2073.667480,1499.838013 2073.667480,1503.713379 
	C1833.573242,1503.713379 1594.181152,1503.713379 1354.228027,1503.713379 
	C1354.228027,1308.302490 1354.228027,1112.880981 1354.228027,916.333618 
	C1363.238892,916.333618 1372.129150,916.333618 1382.015625,916.333801 
z"/>
</svg>